<?xml version="1.0" encoding="utf-8"?>
<!-- Generator: Adobe Illustrator 26.0.0, SVG Export Plug-In . SVG Version: 6.00 Build 0)  -->
<svg version="1.1" id="Layer_1" xmlns="http://www.w3.org/2000/svg" xmlns:xlink="http://www.w3.org/1999/xlink" x="0px" y="0px"
	 viewBox="0 0 335.9 346.1" style="enable-background:new 0 0 335.9 346.1;" xml:space="preserve">
<style type="text/css">
	.st0{fill:#FFFFFF;}
	.st1{fill-rule:evenodd;clip-rule:evenodd;fill:#FFFFFF;}
</style>
<g>
	<g>
		<g>
			<g>
				<path class="st0" d="M174.8,33.8L174.8,33.8L174.8,33.8l3.6-7.5l0.2-0.4l-0.3,0.4l-4.7,6l-0.6,0l0,0l0,0l-5,5l-1.5,0l-0.2-3.9
					l1.1-0.5l0,0l0,0l-0.7-1.7l0,0l0,0l-3,0h0l0,0l-0.6,1.7l0,0l0,0l0.9,0.4l-0.5,3.9l-1.4,0l-3.6-3.6l0,0l0,0l0,0l0,0l1.7,2.7
					c0.6,0.9,1.2,1.8,1.8,2.7l0,0l0,0l6.6,0.1l0,0l0,0l1-1.3l1.4-0.1l0,0l0,0l1-2.3L174.8,33.8z"/>
				<polygon class="st0" points="163.8,26.7 164,25.2 161.5,26.8 				"/>
				<polygon class="st0" points="166.3,26.7 166.1,25.2 168.5,26.8 				"/>
				<polygon class="st0" points="164,28.4 166.1,28.4 165.1,27.1 				"/>
				<polygon class="st0" points="167.8,32.5 169.4,31.1 169.5,31 169.5,30.9 169.1,29.3 168.9,28.5 168.7,29.3 				"/>
				<polygon class="st0" points="162.2,34.5 162.7,30.7 160.5,27.4 				"/>
				<polygon class="st0" points="178,30.8 177.9,31 174.9,39.4 174.7,40 175.1,39.4 187,20.4 187,20.3 				"/>
				<path class="st0" d="M163.3,110.1l0-0.1L163.3,110.1l-0.5,1.8l-1.5,0l0.9-7.7l0,0l-0.9,4.1c-0.3,1.4-0.6,2.8-0.9,4.2l0,0.1
					l0.1,0l3.2,0.1l0,0l0,0L163.3,110.1z"/>
				<g>
					<polygon class="st0" points="138.2,12.9 139.7,13.1 139.8,13.2 139.8,13.2 141.9,17.7 142.3,18.5 141.7,17.9 136.5,13.1 
						136.5,13.1 136.4,13 135.4,10 135.7,9.8 					"/>
					<polygon class="st0" points="140,12.4 139,10 138.7,10 138.7,12.3 					"/>
				</g>
				<g>
					<polygon class="st0" points="191.5,14 190,14.2 189.9,14.2 189.9,14.3 187.8,18.8 187.4,19.5 188.1,19 193.2,14.2 193.3,14.1 
						193.3,14.1 194.4,11 194,10.8 					"/>
					<polygon class="st0" points="189.8,13.5 190.8,11 191,11.1 191,13.3 					"/>
				</g>
				<path class="st0" d="M172.6,44.4l-3,1.7l-3.9-1.1l-0.8-3.8l0-0.2l0,0.2l-0.8,3.5l-2.1,0.5l-3.4-1.3l-0.9-2.9l-0.5-1.5
					c-0.2-0.5-0.3-1-0.4-1.5l0,0l0,0l-1.1-2.8l0,0l0,0l-5.9-9.3l-0.2-0.3l0.1,0.3l1.6,4.9l-1.2-0.4l-0.2-0.6l-3.1-7.7l0,0l0,0
					l-4.6-4l-0.2,0.1l2.3,5.5l0,0l0,0l5.3,6.4l0.4,0.5L155,38l3.8,14.5l0.2,5.3l0,0l0,0l0.4,3.7l-1.4,7.2l0,0l0,0l1.3,11.9
					c0.1,0.9,0.2,1.8,0.3,2.7l0.1,1.1l0,0l0,0c0,0,0,0.1,0,0.1l0.8,5.8l1.6,11.6l0,0l0.5-21.8v0l0,0l-1.4-0.6l-0.7-10.7l1-8.4
					l1.1,2.5l0,0l0,0l2.2,0.7c0.1,1.1,0.2,2.3,0.2,3.4l0,0l-1.5,10.3l-0.1,0.6l0.3-0.6l1.6-3.2l0.1,3.1l-1,5l0,0v0l0,15.1l0,3.8
					l0,1.9c0,0.6,0,1.3,0,1.9l0.2,6.8l0,0.9l0,0l0,0l4.3-0.1l0.1,0l0-0.1c-0.2-0.9-0.4-1.9-0.6-2.8l-0.6-2.8l0,0l0.3,5.1l-1.4,0
					l0.6-7l0,0l0,0l-0.8-2.6l3.2-16.3l0,0v0l-0.2-4.4l1.7-12.8l0,0l-2.8,10l-0.9-12.5l2.3-4.3l1.5,4.9l0,0l-1-9.7l0.6-3.1l0,0
					l2.7-9.2l0-0.1l0,0l0.9-4.1l0.1-0.4l-0.2,0.3L172.6,44.4z M168.3,88.4l-2.9,11.3l0-15l0.5-1.1l2.4,0.6l0,4L168.3,88.4z
					 M168.3,88.4L168.3,88.4L168.3,88.4L168.3,88.4L168.3,88.4z M166.9,56.9L166.9,56.9L166.9,56.9l-0.7-1.7L167,54l0.1-0.1l-0.1,0
					l-2.1-0.9l-0.1-0.1l0,0.1l-0.1,9.1l-1.1-0.3l-2.4-5l1.4-1.5l0,0l0,0l-1.4-2.9l1.7-1.3l0,0l0,0l-0.9-1.9l0,0l0,0L160,50l-0.1-1
					l4-2.8l0.9,4.4l0,0l0,0l0.8-4.5l4.1,3.3l-0.1,1.1l0,0c-0.7-0.5-1.5-0.9-2.2-1.4l-0.1,0l0,0.1l-0.3,2l0,0l0,0l1.9,1.4l-1,3.3l0,0
					l0,0l0.9,2l-3.6,3.7L166.9,56.9z"/>
				<g>
					<path class="st0" d="M220.4,56.5C220.4,25.4,197,0,165.8,0c-22.3,0-40.8,11.6-50.9,27.3h3.5c9.4-15.7,24-26,46.5-26
						c30.2,0,51.7,23.7,51.7,52.5c0,27.4-18.9,48-45.1,51.4v7.1C200.4,109.4,220.4,87.2,220.4,56.5z"/>
				</g>
			</g>
			<g>
				<path class="st0" d="M89,150.7c-4.3-2.9-9.9-4.4-16.5-4.4c-5.2,0-9.7,0.8-13.5,2.2c-3.2,1.2-5.5,3.5-5.5,3.5s3.3-1.2,6.1-1.6
					c3.4-0.4,7.8-0.5,12.9,0.2c7.1,1.1,12.1,4.6,13.5,9.6H48.3v2.8c0,5.8,2,9.9,6.2,12.8l0.3,0.2c4.2,2.7,10.3,4.2,17.7,4.2h23.4
					v-16C95.9,158.5,93.5,153.8,89,150.7z M86.4,174.9h-14c-2.4,0-4.8-0.3-6.7-1c0,0,0,0,0,0c-4.5-1.5-7.8-4.5-7.8-8.9h28.5
					L86.4,174.9z"/>
				<path class="st0" d="M144.8,146.3h-9.5v28.6h-8.7c-2.4,0-4.7-0.3-6.7-1c-3.4-1.1-8-4.5-8-9.9v-17.6h-9.5v16.6
					c0,5.8,2.1,9.9,6.3,12.7l0.2,0.1c4.2,2.8,10.3,4.2,17.7,4.2l17.2,0h0c0.3,0,1,0,1,0s0-0.7,0-1V146.3z"/>
				<path class="st0" d="M42.4,160.1h-9.5c0,0,0,0,0,0v3.8c0,5.5-4.6,8.8-8,9.9c-2,0.7-4.3,1-6.7,1l-8.7,0l0-28.6l0,0H0V180h18.4
					c7.3,0,13.2-1.4,17.4-4.2l0.2-0.1c4.3-2.8,6.3-6.8,6.3-12.6L42.4,160.1C42.5,160.1,42.4,160.1,42.4,160.1z"/>
				<path class="st0" d="M281.5,146.3h-9.5v17.6c-0.5,6.2-4.6,8.8-8,9.9c-2,0.7-4.3,1-6.7,1h-8.7v-28.6h-8.5c-0.3,0-1,0-1,0
					s0,0.7,0,1l0,31.7c0,0.3,0,1,0,1s0.7,0,1,0l17.2,0c7.3,0,13.5-1.5,17.7-4.2l0.2-0.1c4.3-2.8,6.3-6.9,6.3-12.7V146.3z"/>
				<path class="st0" d="M189.4,150.6c-4.4-2.9-10.8-4.3-17.9-4.3l0,0h-0.2h-19.2V180h8.5c0.3,0,1,0,1,0s0-0.7,0-1l0-27.6h9.5
					c5.1,0,10.3,1.2,13.4,4.8h9.8C193.5,154.1,192,152.2,189.4,150.6z"/>
				<path class="st0" d="M225.2,150.7c-4.3-2.9-9.9-4.4-16.5-4.4c-4.8,0-6.9,0.3-10.7,1.7c-3.6,1.3-4.9,2.9-4.9,2.9s-0.1,0,2.6-0.5
					c3.2-0.6,7.1-0.5,12.9,0.2c5.7,0.7,12.2,4,13.8,9.5l-37.9,0c0,1.2,0,2.8,0,2.8c0,5.4,2.5,9.5,6.8,12.7c0.3,0.2,0.6,0.5,1,0.7
					c4.1,2.7,7.9,3.8,15.4,3.8c8.4,0,11.9-1.4,15-2.8c1-0.4,1.9-1,2.9-1.6c2.1-1.3,4.1-3,5.3-4.4c1-1.2,1.2-1.6,1.2-1.6l-10.2,0
					c0,0,0,0,0,0c-1.7,2-3.7,3.4-6,4.3l0,0c-2.1,0.8-4.4,1.1-7.3,1.1c-2.5,0-4.9-0.4-6.9-1.1c-3.1-1.1-7.6-4.6-7.6-8.9h38
					C232.5,159.2,230,154,225.2,150.7z"/>
				<path class="st0" d="M335.3,160.1h-37.8c1.6-5.6,8.1-8.8,13.8-9.5c5.8-0.7,9.8-0.8,12.9-0.2c2.3,0.4,3.8,0.9,3.8,0.9
					c-0.9-1.2-2.8-2.4-4.7-3.1c-3.8-1.4-6.8-1.9-12.1-1.9c-6.6,0-12.1,1.5-16.5,4.4c-4.8,3.3-7.3,8.5-7,14.3h38
					c-0.8,5.4-4.5,7.7-7.6,8.9c0,0,0,0,0,0c-2,0.7-4.4,1.1-6.9,1.1c-2.9,0-5.2-0.4-7.3-1.1c-2.3-0.9-4.3-2.3-6-4.3l-10.2,0
					c0,0,1,1.3,1.3,1.6c1.1,1.4,3.2,3.1,5.3,4.4c1,0.6,1.9,1.1,2.9,1.6c3.2,1.4,7.4,2.8,15,2.8c7.5,0,11.3-1.1,15.4-3.8
					c0.3-0.2,0.7-0.4,1-0.7c4.3-3.1,6.6-7.5,6.7-12.7V160.1z"/>
				<g>
					<polygon class="st1" points="329.2,155.2 329.2,152.3 327.9,152.3 327.9,152 331,152 331,152.3 329.7,152.3 329.7,155.2 					
						"/>
					<path class="st1" d="M331.5,155.2V152h0.7l1.2,2.7l1.2-2.7h0.7v3.2h-0.5c0,0,0,0,0-2.7l-1.2,2.7h-0.4c0,0,0,0-1.2-2.7v2.7
						H331.5z"/>
				</g>
			</g>
		</g>
		<g>
			<path class="st0" d="M128,270.7l0-0.1h-13.8v3.1h10l0,0.6c-0.8,6.2-5.4,10-12,10c-7.6,0-13.6-6.1-13.6-14c0-3.7,1.4-7.3,3.9-9.9
				c2.5-2.7,6-4.1,9.6-4.1c3,0,6,1.1,8.4,3l0.1,0.1l2.3-2.4l-0.1-0.1c-3-2.5-6.8-3.9-10.7-3.9c-9.5,0-17,7.6-17,17.3
				c0,9.7,7.5,17.3,17,17.3C122.2,287.6,127.9,281.4,128,270.7z"/>
			<path class="st0" d="M131.9,270.3c0,9.7,7.5,17.3,17,17.3s17-7.6,17-17.3c0-9.7-7.5-17.3-17-17.3S131.9,260.6,131.9,270.3z
				 M148.9,256.3c3.7,0,7.1,1.5,9.6,4.1c2.5,2.6,3.9,6.2,3.9,9.9c0,7.8-6,14-13.6,14s-13.6-6.1-13.6-14c0-3.7,1.4-7.3,3.9-9.9
				C141.8,257.7,145.3,256.3,148.9,256.3z"/>
			<path class="st0" d="M187.8,287.6c9.5,0,17-7.6,17-17.3c0-9.7-7.5-17.3-17-17.3c-9.5,0-17,7.6-17,17.3
				C170.8,280,178.3,287.6,187.8,287.6z M187.8,256.3c3.7,0,7.1,1.5,9.6,4.1c2.5,2.6,3.9,6.2,3.9,9.9c0,7.8-6,14-13.6,14
				c-7.6,0-13.6-6.1-13.6-14c0-3.7,1.4-7.3,3.9-9.9C180.7,257.7,184.1,256.3,187.8,256.3z"/>
			<path class="st0" d="M240,270.3c0-10.1-6.1-16.9-15.1-16.9h-12.8v33.7h12.8C233.9,287.1,240,280.3,240,270.3z M215.6,256.6h9.3
				c7.1,0,11.6,5.4,11.6,13.7c0,8.2-4.6,13.5-11.6,13.5h-9.3V256.6z"/>
		</g>
		<g>
			<path class="st0" d="M64.9,224.2c0-4.5-3.1-7.7-9.1-9.1l-4.5-1.1c-3.6-0.8-5.4-2.6-5.4-5.3c0-3.8,3.7-6,7.2-6
				c4.1,0,7,2.4,7.2,5.9l0,0.1h3.4l0-0.1c-0.2-5.4-4.5-9.2-10.5-9.2c-5.3,0-10.8,3.5-10.8,9.2c0,4.3,2.7,7.2,8,8.5l4.5,1.1
				c2.9,0.7,6.5,2.4,6.5,6.1c0,3.2-2.7,6.4-7.9,6.4c-4.8,0-7.6-3.2-7.9-6.3l0-0.1h-3.4l0,0.1c0.1,2.5,1.3,4.9,3.3,6.6
				c2.1,1.9,5,2.9,8.1,2.9C60.9,234,64.9,228.9,64.9,224.2z"/>
			<path class="st0" d="M99,216.8c0,9.7,7.5,17.3,17,17.3s17-7.6,17-17.3c0-9.7-7.5-17.3-17-17.3S99,207.1,99,216.8z M116,230.8
				c-7.6,0-13.6-6.1-13.6-14c0-3.7,1.4-7.3,3.9-9.9c2.5-2.7,6-4.1,9.6-4.1c3.7,0,7.1,1.5,9.6,4.1c2.5,2.6,3.9,6.2,3.9,9.9
				C129.6,224.6,123.6,230.8,116,230.8z"/>
			<path class="st0" d="M92.7,203.1c-1.7-2.1-4.3-3.2-7.5-3.2H72V232l3.5,2v-13.5h9.7c7.3,0,9.8-5.3,9.8-10.3
				C95,207.4,94.2,204.9,92.7,203.1z M85,217.2h-9.5v-14.1h9.8c4.6,0,6.3,3.7,6.3,7.1C91.5,213.6,89.8,217.2,85,217.2z"/>
			<polygon class="st0" points="190.5,203.1 190.5,199.8 165.7,199.8 165.7,203.1 176.3,203.1 176.3,232 179.8,234 179.8,203.1 			
				"/>
			<path class="st0" d="M162.7,210.2c0-5-2.6-10.3-9.8-10.3h-12.5V232l3.5,2v-13.6h5.4l9.2,13.1h4.2l-9.3-13.1
				C159.1,220.2,162.7,216.4,162.7,210.2z M143.8,217.2v-14.1h9.1c4.6,0,6.3,3.6,6.3,7.1c0,2.6-0.9,7.1-7.1,7.1H143.8z"/>
		</g>
		<g>
			<path class="st0" d="M246.4,199.5c-9.5,0-17,7.6-17,17.3c0,9.7,7.5,17.3,17,17.3s17-7.6,17-17.3
				C263.4,207.1,256,199.5,246.4,199.5z M246.4,230.8c-7.6,0-13.6-6.1-13.6-14c0-3.7,1.4-7.3,3.9-9.9c2.5-2.7,6-4.1,9.6-4.1
				s7.1,1.5,9.6,4.1c2.5,2.6,3.9,6.2,3.9,9.9C260,224.6,254,230.8,246.4,230.8z"/>
			<polygon class="st0" points="226.3,203.1 226.3,199.8 207.2,199.8 207.2,232 210.7,234 210.7,218.7 223.1,218.7 223.1,215.4 
				210.7,215.4 210.7,203.1 			"/>
			<path class="st0" d="M293.1,210.2c0-5-2.6-10.3-9.8-10.3h-12.5V232l3.5,2v-13.6h5.4l9.2,13.1h4.2l-9.3-13.1
				C289.6,220.2,293.1,216.4,293.1,210.2z M274.2,217.2v-14.1h9.1c4.6,0,6.3,3.6,6.3,7.1c0,2.6-0.9,7.1-7.1,7.1H274.2z"/>
		</g>
	</g>
</g>
<g>
	<g>
		<rect x="33.6" y="329.6" class="st0" width="25.3" height="5.6"/>
	</g>
	<g>
		<rect x="276.4" y="329.6" class="st0" width="25.3" height="5.6"/>
	</g>
	<g>
		<path class="st0" d="M77.7,332.2c0-7.6,6-13.8,13.7-13.8c4,0,7.6,1.7,9.9,4.3l-3.9,3.4c-1.5-1.6-3.7-2.6-6-2.6
			c-4.7,0-8.3,4-8.3,8.8c0,4.8,3.6,8.9,8.3,8.9c3.5,0,6.3-1.7,7-4.5c0.1-0.2,0.1-0.4,0.2-0.7H91v-4.4h13.5c0,9.9-5.3,14.4-13,14.4
			S77.7,339.8,77.7,332.2z"/>
		<path class="st0" d="M125.9,340.8v4.8h-17.2v-26.8h16.8v4.8h-11.4v6.4h10v4.9h-10v6H125.9z"/>
		<path class="st0" d="M138.4,336h-1.8v9.6h-5.4v-26.8h10.7c6.2,0,8.8,4.4,8.8,8.8c0,3.8-2,7.2-6.5,8.2l7,9.9h-6.3L138.4,336z
			 M136.5,331.6h4.3c3,0,4.3-1.8,4.3-4s-1.4-4.1-3.9-4.1h-4.7V331.6z"/>
		<path class="st0" d="M181.3,345.6l-1.9-16.6l-6.5,13.6h-4.2l-6.6-13.6l-1.9,16.6h-5.5l3.3-26.8h4.6l8.3,17.6l8.2-17.6h4.7
			l3.3,26.8H181.3z"/>
		<path class="st0" d="M206.4,339.2h-10l-2.1,6.4h-5.8l10-26.8h5.8l10,26.8h-5.7L206.4,339.2z M204.7,334.5l-3.4-10.1l-3.4,10.1
			H204.7z"/>
		<path class="st0" d="M237.3,318.8v26.8h-4.9l-9.7-16.8v16.8h-5.4v-26.8h5l9.6,16.6v-16.6H237.3z"/>
		<path class="st0" d="M266.7,318.8l-10.4,14.7v12.1h-5.4v-12.2l-10.4-14.6h6.5l6.6,10.2l6.7-10.2H266.7z"/>
	</g>
</g>
</svg>
