<?xml version="1.0" encoding="UTF-8"?>
<svg xmlns="http://www.w3.org/2000/svg" width="230" height="104" viewBox="0 0 230 104" fill="none">
  <path d="M171.92 46.3359L172.02 46.3364L172.124 46.3524L172.328 46.3627C176.246 46.5605 179.316 49.7748 179.316 53.6805V61.0253H171.92C167.996 61.0253 164.767 57.977 164.568 54.0855L164.556 53.8561L164.541 53.7681L164.541 53.6805C164.541 49.6307 167.851 46.3359 171.92 46.3359ZM171.92 42.3325C165.621 42.3325 160.514 47.4063 160.514 53.6805C160.514 53.8886 160.514 54.0967 160.546 54.2888C160.852 60.2749 165.831 65.0287 171.92 65.0287H183.342V53.6806C183.342 47.6144 178.558 42.6686 172.532 42.3645C172.323 42.3325 172.13 42.3325 171.92 42.3325Z" fill="#F39100"></path>
  <path d="M214.934 46.3359C219.003 46.3359 222.313 49.6307 222.313 53.6806L222.313 53.7678L222.298 53.8559L222.286 54.0856C222.087 57.977 218.858 61.0253 214.934 61.0253H207.539V53.6806C207.539 49.7749 210.608 46.5605 214.526 46.3627L214.73 46.3524L214.835 46.3365L214.934 46.3359ZM214.934 42.3325C214.725 42.3325 214.531 42.3325 214.322 42.3645C208.297 42.6686 203.512 47.6144 203.512 53.6806V65.0287H214.934C221.024 65.0287 226.002 60.2749 226.308 54.2888C226.34 54.0967 226.34 53.8886 226.34 53.6805C226.34 47.4063 221.233 42.3325 214.934 42.3325Z" fill="#F39100"></path>
  <path d="M208.71 78.1699C211.234 78.1699 213.311 80.1324 213.439 82.6376L213.449 82.8447L213.458 82.8949L213.458 82.9015C213.458 85.4897 211.362 87.5991 208.687 87.6324L208.629 87.6236L208.445 87.6143C205.925 87.487 203.951 85.4169 203.951 82.9015V78.1699H208.71ZM208.71 74.5566H200.495C200.4 74.5566 200.317 74.639 200.317 74.7332V82.9015C200.317 87.3623 203.833 90.9992 208.261 91.2229C208.415 91.2464 208.557 91.2464 208.71 91.2464C213.339 91.2464 217.092 87.5153 217.092 82.9015C217.092 82.7485 217.092 82.5955 217.068 82.4543C216.843 78.0523 213.185 74.5566 208.71 74.5566Z" fill="#F39100"></path>
  <path d="M182.881 78.1699V82.9015C182.881 85.4169 180.907 87.487 178.387 87.6143L178.203 87.6236L178.123 87.6358C178.129 87.6344 178.13 87.6334 178.122 87.6331C175.504 87.6331 173.375 85.5105 173.375 82.9015L173.375 82.8947L173.383 82.8445L173.394 82.6376C173.522 80.1324 175.599 78.1699 178.122 78.1699H182.881ZM186.338 74.5566H178.122C173.647 74.5566 169.989 78.0523 169.764 82.4543C169.74 82.5955 169.74 82.7485 169.74 82.9015C169.74 87.5153 173.493 91.2464 178.122 91.2464C178.276 91.2464 178.418 91.2464 178.572 91.2229C182.999 90.9992 186.515 87.3623 186.515 82.9015V74.7332C186.515 74.639 186.433 74.5566 186.338 74.5566Z" fill="#F39100"></path>
  <path d="M193.5 82.1876C195.301 85.2403 196.951 88.1527 197.353 91.3571C197.711 94.2092 197.273 96.5021 196.122 97.8134C195.196 98.8684 194.046 99.0377 193.401 99.045C192.734 99.045 191.771 98.8558 190.97 97.9545C189.803 96.6405 189.364 94.2972 189.733 91.3563C190.14 88.1135 191.744 85.2167 193.5 82.1876ZM193.486 74.5566C191.112 79.9229 186.914 84.6328 186.127 90.9089C185.126 98.882 189.127 102.658 193.401 102.658C193.43 102.658 193.458 102.658 193.486 102.658C197.608 102.61 201.985 99.0943 200.96 90.9103C200.172 84.6335 195.729 79.7294 193.486 74.5566Z" fill="#F39100"></path>
  <path d="M204.091 68.6416H182.774C181.862 68.6416 181.122 67.8327 181.122 66.835C181.122 65.8372 181.862 65.0283 182.774 65.0283H204.091C205.003 65.0283 205.743 65.8372 205.743 66.835C205.743 67.8327 205.003 68.6416 204.091 68.6416Z" fill="#F39100"></path>
  <path d="M200.475 75.001H186.39C185.387 75.001 184.573 74.1921 184.573 73.1943C184.573 72.1966 185.387 71.3877 186.39 71.3877H200.475C201.479 71.3877 202.292 72.1966 202.292 73.1943C202.292 74.1921 201.479 75.001 200.475 75.001Z" fill="#F39100"></path>
  <path d="M193.525 18.1953H193.379C186.274 18.2856 178.751 24.1391 180.514 37.7792C181.859 48.2397 189.509 56.4057 193.379 65.0234C197.468 56.0805 204.682 48.2397 206.045 37.7792C207.771 24.5005 200.884 18.1953 193.525 18.1953ZM185.966 26.2729C187.637 23.9546 190.327 22.5931 193.343 22.5563H193.452C196.305 22.5563 198.849 23.8258 200.448 26.0153C202.283 28.5359 202.938 32.2708 202.338 36.8153C201.611 42.4454 198.667 47.2842 195.56 52.4175C194.815 53.6502 194.052 54.9014 193.325 56.1709C192.562 54.883 191.78 53.6134 190.999 52.3439C187.964 47.4315 184.839 42.3534 184.112 36.8153C183.531 32.326 184.148 28.7751 185.966 26.2729Z" fill="#F39100"></path>
  <path d="M5.04006 32.8466V29.9558L17.8869 11.8171H6.05688V6.72266H26.773V9.48643L13.6892 27.6798H26.5725V32.8466H5.04006Z" fill="black"></path>
  <path d="M36.7675 33.2081C35.9556 33.2081 35.1314 33.0749 34.2955 32.8102C33.4597 32.5456 32.6905 32.1574 31.9877 31.6449C31.285 31.1333 30.7189 30.5069 30.2895 29.7659C29.8592 29.0249 29.6436 28.1737 29.6436 27.2095V14.166H35.8403V26.3785C35.8403 27.0772 36.0825 27.6585 36.567 28.1216C37.0514 28.5856 37.7488 28.8176 38.6574 28.8176C39.5296 28.8176 40.2199 28.5918 40.7283 28.1401C41.2376 27.6885 41.4914 27.0895 41.4914 26.3423V14.166H47.634V32.8464H43.0184L42.2917 29.0708C42.061 30.2387 41.6369 31.1209 41.0193 31.7172C40.4018 32.3135 39.7079 32.7105 38.9387 32.9099C38.1694 33.1084 37.4454 33.2081 36.7675 33.2081Z" fill="black"></path>
  <path d="M70.474 32.8464H64.4051L59.6803 25.3852L57.754 27.4988V32.8464H51.5759V6H57.754V21.1756L63.7875 14.166H70.3294L63.4965 21.7534L70.474 32.8464Z" fill="black"></path>
  <path d="M79.6518 33.2081C78.8399 33.2081 78.0156 33.0749 77.1798 32.8102C76.344 32.5456 75.5747 32.1574 74.872 31.6449C74.1693 31.1333 73.6032 30.5069 73.1738 29.7659C72.7434 29.0249 72.5278 28.1737 72.5278 27.2095V14.166H78.7246V26.3785C78.7246 27.0772 78.9668 27.6585 79.4513 28.1216C79.9357 28.5856 80.6331 28.8176 81.5417 28.8176C82.4139 28.8176 83.1042 28.5918 83.6126 28.1401C84.1219 27.6885 84.3756 27.0895 84.3756 26.3423V14.166H90.5183V32.8464H85.9026L85.176 29.0708C84.9453 30.2387 84.5212 31.1209 83.9036 31.7172C83.2861 32.3135 82.5922 32.7105 81.8229 32.9099C81.0537 33.1084 80.3296 33.2081 79.6518 33.2081Z" fill="black"></path>
  <path d="M94.4607 32.8464V14.1661H100.567V16.7852C100.833 16.3521 101.187 15.9242 101.63 15.5026C102.072 15.0809 102.635 14.7324 103.319 14.4546C104.003 14.1776 104.837 14.0391 105.818 14.0391C106.945 14.0391 108.008 14.2561 109.007 14.6901C110.007 15.1232 110.821 15.8131 111.451 16.7587C112.081 17.7044 112.396 18.9412 112.396 20.4708V32.8465H106.182V21.2842C106.182 20.4646 105.915 19.848 105.382 19.4325C104.849 19.017 104.237 18.8089 103.546 18.8089C103.086 18.8089 102.632 18.8962 102.184 19.0709C101.735 19.2455 101.366 19.5049 101.075 19.848C100.784 20.1912 100.639 20.6217 100.639 21.1395V32.8465L94.4607 32.8464Z" fill="black"></path>
  <path d="M128.024 14.1662V18.3758H124.335V32.8466H118.139V18.3758H114.886V14.1662H118.139V11.5824C118.139 10.0528 118.617 8.86098 119.574 8.0053C120.531 7.15051 121.846 6.72266 123.517 6.72266H128.169L128.206 10.7514H125.88C125.249 10.7514 124.814 10.8987 124.572 11.1943C124.329 11.4889 124.208 11.9979 124.208 12.7204V14.1662H128.024Z" fill="black"></path>
  <path d="M143.232 18.3755H139.107L139.125 27.5886C139.125 27.9627 139.183 28.2396 139.298 28.4196C139.414 28.6005 139.573 28.7213 139.78 28.7813C139.986 28.8413 140.24 28.8713 140.543 28.8713H143.269V32.5754C143.014 32.6839 142.62 32.795 142.088 32.9097C141.555 33.0235 140.773 33.0809 139.744 33.0809C137.938 33.0809 136.542 32.855 135.555 32.4034C134.567 31.9517 133.883 31.3316 133.502 30.5429C133.12 29.7543 132.929 28.8598 132.929 27.8603V18.3755H129.876V14.1659H133.147L134.728 8.43896H139.107V14.1297H143.232V18.3755Z" fill="black"></path>
  <path d="M154.37 33.2084C153.063 33.2084 151.784 32.9914 150.537 32.5574C149.289 32.1243 148.222 31.4318 147.338 30.4799C146.454 29.529 145.885 28.2878 145.63 26.7582H150.936C151.094 27.3968 151.379 27.8847 151.79 28.2216C152.202 28.5595 152.645 28.788 153.117 28.908C153.59 29.0288 153.995 29.0888 154.334 29.0888C155.23 29.0888 155.958 28.9627 156.515 28.7095C157.072 28.4563 157.351 28.0717 157.351 27.553C157.351 27.1198 157.178 26.7793 156.833 26.5323C156.487 26.2862 155.89 26.0895 155.043 25.9457L151.99 25.3855C150.269 25.06 148.88 24.461 147.82 23.5877C146.759 22.7144 146.223 21.4767 146.212 19.8747C146.199 18.7306 146.508 17.7011 147.138 16.7855C147.768 15.8707 148.695 15.1447 149.919 14.6083C151.142 14.0728 152.645 13.8047 154.425 13.8047C156.86 13.8047 158.798 14.3349 160.24 15.3943C161.682 16.4546 162.408 17.9181 162.421 19.7848H157.332C157.199 19.1461 156.857 18.6618 156.306 18.3301C155.755 17.9993 155.097 17.8335 154.334 17.8335C153.559 17.8335 152.908 17.9631 152.381 18.2216C151.854 18.4809 151.591 18.87 151.591 19.3869C151.591 19.7848 151.82 20.1041 152.281 20.3449C152.741 20.5857 153.474 20.8028 154.48 20.9951L157.224 21.5552C158.35 21.8322 159.265 22.2027 159.967 22.6667C160.67 23.1298 161.212 23.6327 161.594 24.1752C161.975 24.7168 162.239 25.2558 162.384 25.7922C162.53 26.3276 162.603 26.8005 162.603 27.2098C162.603 28.4986 162.245 29.5889 161.53 30.4799C160.816 31.3718 159.837 32.0492 158.596 32.5124C157.353 32.9764 155.945 33.2084 154.37 33.2084Z" fill="black"></path>
  <path d="M55.5677 37.7607L44.2381 75.6402H37.3351L30.7479 52.954L24.1075 75.6402H17.3101L5.95386 37.7607H14.6749L21.1831 60.4205L27.559 37.7607H33.9359L40.4698 60.4205L46.8467 37.7607H55.5677Z" fill="black"></path>
  <path d="M59.283 75.6402V37.7607H86.4487L86.3955 45.1999H68.3208V52.9284H83.7345V60.2105H68.2675V68.1216L86.6067 68.1481V75.6402H59.283Z" fill="black"></path>
  <path d="M122.942 75.6402H113.719L107.844 61.809H101.309V75.6402H92.3242V37.7607H109.003C112.182 37.7607 114.755 38.2715 116.723 39.293C118.69 40.3145 120.131 41.7119 121.045 43.4841C121.958 45.2572 122.414 47.2694 122.414 49.5224C122.414 51.4958 122.133 53.1683 121.572 54.5392C121.009 55.9101 120.25 57.063 119.292 57.9972C118.335 58.9314 117.258 59.7218 116.064 60.3675L122.942 75.6402ZM107.765 55.0764C109.45 55.0764 110.808 54.5436 111.835 53.478C112.863 52.4132 113.377 51.1464 113.377 49.6794C113.377 48.1427 112.85 46.8857 111.796 45.9074C110.742 44.9299 109.486 44.4404 108.028 44.4404H101.309V55.0764H107.765Z" fill="black"></path>
  <path d="M161.911 75.6402H152.188L142.914 58.822L137.723 65.2405V75.6402H128.396V37.7607H137.723V54.0805L150.186 37.7607H160.33L149.342 52.3259L161.911 75.6402Z" fill="black"></path>
</svg>
