<?xml version="1.0" encoding="utf-8"?>
<!-- Generator: Adobe Illustrator 24.1.2, SVG Export Plug-In . SVG Version: 6.00 Build 0)  -->
<svg version="1.1" id="Ebene_1" xmlns="http://www.w3.org/2000/svg" xmlns:xlink="http://www.w3.org/1999/xlink" x="0px" y="0px"
	 viewBox="0 0 77.16 28.361" style="enable-background:new 0 0 77.16 28.361;" xml:space="preserve">
<style type="text/css">
	.st0{fill:#B2B2B2;}
	.st1{fill:#FFFFFF;}
	.st2{fill:url(#SVGID_1_);}
	.st3{fill:url(#SVGID_2_);}
	.st4{fill:url(#SVGID_3_);}
	.st5{fill:url(#SVGID_4_);}
	.st6{fill:url(#SVGID_5_);}
	.st7{fill:url(#SVGID_6_);}
	.st8{fill:url(#SVGID_7_);}
	.st9{fill:url(#SVGID_8_);}
	.st10{fill:url(#SVGID_9_);}
	.st11{fill:url(#SVGID_10_);}
	.st12{fill:url(#SVGID_11_);}
	.st13{fill:url(#SVGID_12_);}
	.st14{fill:url(#SVGID_13_);}
	.st15{fill:url(#SVGID_14_);}
</style>
<g>
	<g>
		<path class="st0" d="M73.172,3.338v8.29c0,0,0,1.036-1.036,1.036h-7.254c0,0-1.036,0-1.036-1.036V4.374c0,0,0-1.036,1.036-1.036
			H73.172z"/>
		<path class="st1" d="M72.135,9.284c-0.099-0.086-0.216-0.149-0.353-0.188c-0.137-0.039-0.279-0.059-0.427-0.059
			c-0.121,0-0.239,0.017-0.354,0.052c-0.116,0.034-0.219,0.086-0.308,0.155c-0.09,0.069-0.163,0.155-0.218,0.257
			c-0.055,0.102-0.083,0.221-0.083,0.356v0.953c0,0.138,0.028,0.258,0.085,0.36c0.057,0.102,0.13,0.187,0.221,0.255
			c0.091,0.068,0.194,0.119,0.31,0.153c0.116,0.035,0.234,0.052,0.354,0.052c0.15,0,0.293-0.022,0.428-0.067
			c0.135-0.044,0.25-0.106,0.343-0.185l-0.24-0.391c-0.089,0.069-0.177,0.116-0.264,0.14s-0.174,0.037-0.26,0.037
			c-0.057,0-0.113-0.009-0.168-0.026c-0.055-0.017-0.106-0.044-0.151-0.081c-0.046-0.037-0.082-0.084-0.111-0.142
			c-0.028-0.058-0.042-0.129-0.042-0.212V9.959c0-0.084,0.014-0.155,0.042-0.214c0.028-0.059,0.065-0.107,0.109-0.144
			c0.044-0.037,0.095-0.063,0.151-0.079c0.057-0.016,0.113-0.024,0.17-0.024c0.086,0,0.175,0.013,0.266,0.039
			c0.091,0.026,0.176,0.072,0.255,0.138L72.135,9.284z M69.734,10.131c-0.021,0.016-0.045,0.031-0.07,0.044
			c-0.025,0.013-0.051,0.024-0.079,0.032c-0.027,0.008-0.055,0.013-0.082,0.013c-0.083,0-0.146-0.021-0.188-0.063
			c-0.042-0.042-0.063-0.093-0.063-0.155c0-0.069,0.019-0.13,0.056-0.183c0.037-0.053,0.093-0.102,0.168-0.148
			c0.055,0.069,0.107,0.138,0.158,0.206c0.051,0.068,0.103,0.137,0.156,0.206C69.774,10.098,69.755,10.114,69.734,10.131
			 M70.018,10.373h0.211c-0.036-0.044-0.073-0.092-0.112-0.142c-0.039-0.05-0.076-0.098-0.112-0.144
			c0.042-0.059,0.075-0.12,0.1-0.182c0.025-0.062,0.046-0.126,0.061-0.19l-0.168-0.026c-0.01,0.045-0.023,0.088-0.038,0.129
			c-0.015,0.042-0.036,0.085-0.064,0.131c-0.072-0.095-0.144-0.19-0.217-0.285c-0.073-0.096-0.146-0.191-0.217-0.285
			c-0.027-0.037-0.047-0.068-0.059-0.091c-0.012-0.024-0.018-0.052-0.018-0.085c0-0.05,0.015-0.093,0.044-0.129
			c0.029-0.036,0.079-0.054,0.147-0.054c0.026,0,0.049,0.001,0.07,0.003c0.021,0.002,0.041,0.006,0.061,0.013
			c0.02,0.006,0.041,0.016,0.064,0.029c0.022,0.013,0.046,0.029,0.072,0.049l0.11-0.127c-0.053-0.045-0.11-0.078-0.171-0.099
			c-0.061-0.021-0.121-0.031-0.18-0.031c-0.066,0-0.124,0.009-0.173,0.027c-0.049,0.018-0.09,0.043-0.123,0.074
			C69.274,8.99,69.25,9.027,69.233,9.07c-0.017,0.043-0.025,0.089-0.025,0.138c0,0.05,0.01,0.095,0.031,0.135
			c0.021,0.04,0.047,0.081,0.079,0.123c0.011,0.014,0.022,0.029,0.032,0.043c0.01,0.014,0.021,0.028,0.032,0.041
			c-0.108,0.069-0.186,0.14-0.235,0.213c-0.049,0.073-0.073,0.157-0.073,0.251c0,0.05,0.009,0.097,0.026,0.142
			c0.017,0.044,0.043,0.084,0.078,0.118c0.034,0.034,0.078,0.062,0.131,0.082c0.053,0.02,0.116,0.03,0.187,0.03
			c0.073,0,0.143-0.016,0.21-0.047c0.067-0.032,0.127-0.074,0.182-0.127L70.018,10.373z M68.259,11.062
			c-0.058,0.057-0.143,0.086-0.257,0.086H67.46v-0.646h0.539c0.108,0,0.193,0.03,0.255,0.09c0.062,0.06,0.092,0.139,0.092,0.237
			C68.346,10.927,68.317,11.005,68.259,11.062 M68.228,9.996c-0.059,0.049-0.142,0.074-0.248,0.074H67.46V9.513h0.513
			c0.118,0,0.205,0.025,0.26,0.074c0.055,0.049,0.083,0.121,0.083,0.214C68.316,9.882,68.287,9.947,68.228,9.996 M68.859,10.69
			c-0.015-0.055-0.037-0.109-0.067-0.162c-0.029-0.053-0.066-0.102-0.111-0.147c-0.044-0.045-0.097-0.083-0.159-0.112
			c0.108-0.054,0.188-0.131,0.238-0.229c0.05-0.099,0.076-0.195,0.076-0.289c0-0.091-0.015-0.179-0.044-0.263
			c-0.029-0.084-0.074-0.158-0.135-0.222c-0.06-0.064-0.137-0.115-0.229-0.152c-0.092-0.037-0.203-0.055-0.33-0.055h-1.145v2.544
			h1.193c0.121,0,0.226-0.02,0.318-0.061c0.091-0.041,0.167-0.095,0.229-0.164c0.062-0.069,0.108-0.149,0.14-0.24
			c0.032-0.091,0.048-0.188,0.048-0.291C68.881,10.798,68.874,10.746,68.859,10.69"/>
	</g>
	<g>
		<path d="M5.498,23.882c0.12,0.066,0.208,0.151,0.264,0.255c0.056,0.104,0.084,0.229,0.084,0.376c0,0.274-0.096,0.476-0.288,0.605
			c-0.192,0.129-0.441,0.193-0.747,0.193H3.737c-0.019,0-0.033-0.005-0.044-0.016s-0.016-0.025-0.016-0.044v-2.677
			c0-0.019,0.005-0.033,0.016-0.044s0.025-0.017,0.044-0.017h1.039c0.341,0,0.597,0.062,0.769,0.183s0.258,0.324,0.258,0.608
			c0,0.254-0.102,0.438-0.304,0.552C5.488,23.865,5.488,23.873,5.498,23.882z M4.428,23.178v0.399c0,0.013,0.007,0.02,0.02,0.02
			h0.328c0.194,0,0.292-0.073,0.292-0.22s-0.097-0.22-0.292-0.22H4.448C4.434,23.158,4.428,23.165,4.428,23.178z M5.095,24.432
			c0-0.149-0.093-0.224-0.279-0.224H4.448c-0.013,0-0.02,0.007-0.02,0.02v0.42c0,0.014,0.007,0.02,0.02,0.02h0.364
			C5,24.668,5.095,24.59,5.095,24.432z"/>
		<path d="M7.74,25.296c-0.011-0.011-0.016-0.025-0.016-0.044v-2.677c0-0.019,0.005-0.033,0.016-0.044s0.025-0.017,0.044-0.017
			h0.631c0.019,0,0.034,0.006,0.044,0.017c0.011,0.011,0.016,0.025,0.016,0.044v2.677c0,0.019-0.005,0.033-0.016,0.044
			c-0.01,0.011-0.025,0.016-0.044,0.016H7.784C7.765,25.311,7.75,25.306,7.74,25.296z"/>
		<path d="M10.392,25.296c-0.011-0.011-0.016-0.025-0.016-0.044v-2.677c0-0.019,0.005-0.033,0.016-0.044s0.025-0.017,0.044-0.017
			h0.631c0.019,0,0.034,0.006,0.044,0.017c0.011,0.011,0.016,0.025,0.016,0.044v2.073c0,0.014,0.007,0.02,0.02,0.02h1.234
			c0.019,0,0.033,0.006,0.044,0.017s0.016,0.025,0.016,0.044v0.523c0,0.019-0.005,0.033-0.016,0.044s-0.025,0.016-0.044,0.016
			h-1.945C10.417,25.311,10.403,25.306,10.392,25.296z"/>
		<path d="M14.275,25.296c-0.011-0.011-0.016-0.025-0.016-0.044v-2.677c0-0.019,0.005-0.033,0.016-0.044s0.025-0.017,0.044-0.017
			h1.026c0.216,0,0.407,0.038,0.573,0.112c0.167,0.074,0.295,0.18,0.386,0.315c0.09,0.136,0.136,0.293,0.136,0.472v0.999
			c0,0.178-0.045,0.335-0.136,0.471c-0.091,0.136-0.219,0.241-0.386,0.315c-0.166,0.075-0.357,0.112-0.573,0.112h-1.026
			C14.3,25.311,14.286,25.306,14.275,25.296z M15.03,24.668h0.344c0.09,0,0.165-0.035,0.224-0.105s0.089-0.163,0.092-0.277v-0.743
			c0-0.114-0.029-0.207-0.088-0.277c-0.059-0.071-0.136-0.106-0.231-0.106h-0.34c-0.013,0-0.02,0.007-0.02,0.021v1.47
			C15.01,24.662,15.017,24.668,15.03,24.668z"/>
		<path d="M18.823,25.219c-0.167-0.083-0.295-0.2-0.385-0.352c-0.091-0.152-0.136-0.328-0.136-0.527v-1.766
			c0-0.019,0.005-0.033,0.016-0.044s0.025-0.017,0.044-0.017h0.631c0.019,0,0.033,0.006,0.044,0.017
			c0.01,0.011,0.016,0.025,0.016,0.044v1.766c0,0.109,0.032,0.196,0.094,0.262s0.146,0.098,0.25,0.098
			c0.101,0,0.183-0.033,0.246-0.1s0.094-0.153,0.094-0.26v-1.766c0-0.019,0.005-0.033,0.016-0.044s0.025-0.017,0.044-0.017h0.631
			c0.019,0,0.033,0.006,0.044,0.017s0.016,0.025,0.016,0.044v1.766c0,0.199-0.045,0.375-0.136,0.527
			c-0.09,0.151-0.218,0.269-0.383,0.352c-0.165,0.082-0.355,0.124-0.571,0.124S18.99,25.301,18.823,25.219z"/>
		<path d="M23.954,22.531c0.011-0.011,0.025-0.017,0.044-0.017h0.631c0.019,0,0.033,0.006,0.044,0.017
			c0.01,0.011,0.016,0.025,0.016,0.044v2.677c0,0.019-0.005,0.033-0.016,0.044c-0.011,0.011-0.025,0.016-0.044,0.016h-0.604
			c-0.032,0-0.056-0.014-0.072-0.04l-0.815-1.358c-0.005-0.008-0.011-0.011-0.016-0.01s-0.008,0.008-0.008,0.018l0.008,1.331
			c0,0.019-0.005,0.033-0.016,0.044c-0.01,0.011-0.025,0.016-0.044,0.016h-0.631c-0.019,0-0.033-0.005-0.044-0.016
			s-0.016-0.025-0.016-0.044v-2.677c0-0.019,0.005-0.033,0.016-0.044s0.025-0.017,0.044-0.017h0.603c0.032,0,0.056,0.014,0.072,0.04
			l0.811,1.358c0.005,0.008,0.011,0.012,0.016,0.01c0.005-0.001,0.008-0.007,0.008-0.018l-0.004-1.33
			C23.938,22.556,23.944,22.542,23.954,22.531z"/>
		<path d="M27.08,25.212c-0.167-0.088-0.295-0.212-0.387-0.372c-0.092-0.159-0.138-0.344-0.138-0.551v-0.755
			c0-0.208,0.046-0.392,0.138-0.55s0.221-0.281,0.387-0.369s0.359-0.132,0.578-0.132c0.213,0,0.403,0.042,0.571,0.126
			c0.168,0.084,0.298,0.197,0.39,0.341c0.092,0.145,0.138,0.302,0.138,0.472v0.004c0,0.019-0.005,0.033-0.016,0.044
			c-0.011,0.011-0.025,0.017-0.044,0.017h-0.627c-0.04,0-0.06-0.013-0.06-0.036c0-0.088-0.031-0.164-0.094-0.228
			c-0.062-0.064-0.148-0.097-0.257-0.097c-0.107,0-0.192,0.036-0.256,0.106s-0.096,0.164-0.096,0.281v0.799
			c0,0.115,0.036,0.208,0.11,0.28c0.073,0.071,0.164,0.107,0.273,0.107c0.099,0,0.179-0.027,0.242-0.082s0.094-0.13,0.094-0.226
			v-0.052c0-0.014-0.006-0.021-0.02-0.021h-0.352c-0.019,0-0.033-0.005-0.044-0.016s-0.016-0.025-0.016-0.044v-0.479
			c0-0.019,0.005-0.033,0.016-0.044s0.025-0.016,0.044-0.016h1.043c0.019,0,0.033,0.005,0.044,0.016
			c0.01,0.011,0.016,0.025,0.016,0.044v0.548c0,0.197-0.046,0.373-0.138,0.527s-0.221,0.274-0.387,0.359
			c-0.167,0.085-0.358,0.128-0.573,0.128C27.439,25.343,27.246,25.3,27.08,25.212z"/>
		<path d="M31.093,25.233c-0.167-0.073-0.297-0.178-0.389-0.313s-0.138-0.293-0.138-0.472v-0.056c0-0.019,0.005-0.033,0.016-0.044
			s0.025-0.016,0.044-0.016h0.619c0.019,0,0.034,0.005,0.044,0.016c0.011,0.011,0.016,0.025,0.016,0.044v0.024
			c0,0.074,0.04,0.141,0.118,0.197c0.079,0.058,0.183,0.086,0.314,0.086c0.098,0,0.169-0.021,0.211-0.062
			c0.043-0.042,0.064-0.088,0.064-0.138c0-0.059-0.026-0.103-0.08-0.132c-0.054-0.029-0.151-0.065-0.292-0.108l-0.116-0.032
			c-0.264-0.079-0.485-0.186-0.663-0.319c-0.179-0.133-0.268-0.326-0.268-0.579c0-0.168,0.045-0.316,0.136-0.445
			c0.09-0.129,0.215-0.229,0.374-0.298c0.158-0.069,0.336-0.104,0.533-0.104c0.208,0,0.396,0.038,0.565,0.115
			c0.169,0.078,0.302,0.187,0.399,0.328c0.097,0.141,0.146,0.302,0.146,0.483v0.036c0,0.019-0.005,0.033-0.016,0.044
			s-0.025,0.016-0.044,0.016h-0.619c-0.019,0-0.034-0.005-0.044-0.016c-0.011-0.011-0.016-0.025-0.016-0.044v-0.004
			c0-0.08-0.036-0.153-0.108-0.218c-0.072-0.065-0.169-0.099-0.292-0.099c-0.085,0-0.152,0.018-0.202,0.053
			c-0.049,0.034-0.074,0.082-0.074,0.144c0,0.048,0.018,0.089,0.054,0.122c0.036,0.033,0.091,0.064,0.166,0.096
			c0.075,0.03,0.189,0.069,0.344,0.117c0.021,0.009,0.115,0.037,0.282,0.086c0.167,0.05,0.306,0.139,0.417,0.268
			c0.112,0.13,0.167,0.286,0.167,0.47c0,0.179-0.045,0.332-0.136,0.462c-0.09,0.129-0.217,0.228-0.379,0.297
			s-0.352,0.104-0.567,0.104C31.456,25.343,31.261,25.306,31.093,25.233z"/>
		<path d="M35.088,25.233c-0.167-0.073-0.297-0.178-0.389-0.313s-0.138-0.293-0.138-0.472v-0.056c0-0.019,0.005-0.033,0.016-0.044
			s0.025-0.016,0.044-0.016h0.619c0.019,0,0.034,0.005,0.044,0.016c0.011,0.011,0.016,0.025,0.016,0.044v0.024
			c0,0.074,0.04,0.141,0.118,0.197c0.079,0.058,0.183,0.086,0.314,0.086c0.098,0,0.169-0.021,0.211-0.062
			c0.043-0.042,0.064-0.088,0.064-0.138c0-0.059-0.026-0.103-0.08-0.132c-0.054-0.029-0.151-0.065-0.292-0.108l-0.116-0.032
			c-0.264-0.079-0.485-0.186-0.663-0.319c-0.179-0.133-0.268-0.326-0.268-0.579c0-0.168,0.045-0.316,0.136-0.445
			c0.09-0.129,0.215-0.229,0.374-0.298c0.158-0.069,0.336-0.104,0.533-0.104c0.208,0,0.396,0.038,0.565,0.115
			c0.169,0.078,0.302,0.187,0.399,0.328c0.097,0.141,0.146,0.302,0.146,0.483v0.036c0,0.019-0.005,0.033-0.016,0.044
			s-0.025,0.016-0.044,0.016h-0.619c-0.019,0-0.034-0.005-0.044-0.016c-0.011-0.011-0.016-0.025-0.016-0.044v-0.004
			c0-0.08-0.036-0.153-0.108-0.218c-0.072-0.065-0.169-0.099-0.292-0.099c-0.085,0-0.152,0.018-0.202,0.053
			c-0.049,0.034-0.074,0.082-0.074,0.144c0,0.048,0.018,0.089,0.054,0.122c0.036,0.033,0.091,0.064,0.166,0.096
			c0.075,0.03,0.189,0.069,0.344,0.117c0.021,0.009,0.115,0.037,0.282,0.086c0.167,0.05,0.306,0.139,0.417,0.268
			c0.112,0.13,0.167,0.286,0.167,0.47c0,0.179-0.045,0.332-0.136,0.462c-0.09,0.129-0.217,0.228-0.379,0.297
			s-0.352,0.104-0.567,0.104C35.452,25.343,35.256,25.306,35.088,25.233z"/>
		<path d="M40.745,22.531c0.011,0.011,0.016,0.025,0.016,0.044v0.527c0,0.019-0.005,0.033-0.016,0.044s-0.025,0.016-0.044,0.016
			h-0.672c-0.013,0-0.02,0.007-0.02,0.021v2.069c0,0.019-0.005,0.033-0.016,0.044s-0.025,0.016-0.044,0.016h-0.632
			c-0.019,0-0.033-0.005-0.044-0.016s-0.016-0.025-0.016-0.044v-2.069c0-0.014-0.007-0.021-0.02-0.021h-0.651
			c-0.019,0-0.033-0.005-0.044-0.016s-0.016-0.025-0.016-0.044v-0.527c0-0.019,0.005-0.033,0.016-0.044s0.025-0.017,0.044-0.017
			h2.113C40.719,22.514,40.734,22.52,40.745,22.531z"/>
		<path d="M42.594,25.296c-0.011-0.011-0.017-0.025-0.017-0.044v-2.677c0-0.019,0.006-0.033,0.017-0.044s0.025-0.017,0.044-0.017
			h0.631c0.019,0,0.033,0.006,0.044,0.017s0.016,0.025,0.016,0.044v2.677c0,0.019-0.005,0.033-0.016,0.044s-0.025,0.016-0.044,0.016
			h-0.631C42.62,25.311,42.605,25.306,42.594,25.296z"/>
		<path d="M47.236,23.142c-0.011,0.011-0.025,0.016-0.044,0.016h-1.19c-0.013,0-0.02,0.007-0.02,0.021v0.375
			c0,0.014,0.007,0.021,0.02,0.021h0.739c0.019,0,0.033,0.005,0.044,0.016s0.016,0.025,0.016,0.044v0.52
			c0,0.019-0.005,0.033-0.016,0.044s-0.025,0.016-0.044,0.016h-0.739c-0.013,0-0.02,0.007-0.02,0.021v1.019
			c0,0.019-0.006,0.033-0.017,0.044c-0.01,0.011-0.024,0.016-0.044,0.016H45.29c-0.019,0-0.033-0.005-0.044-0.016
			s-0.016-0.025-0.016-0.044v-2.677c0-0.019,0.005-0.033,0.016-0.044s0.025-0.017,0.044-0.017h1.901
			c0.019,0,0.033,0.006,0.044,0.017s0.017,0.025,0.017,0.044v0.523C47.252,23.117,47.246,23.132,47.236,23.142z"/>
		<path d="M51.166,22.531c0.011,0.011,0.017,0.025,0.017,0.044v0.527c0,0.019-0.006,0.033-0.017,0.044s-0.025,0.016-0.044,0.016
			h-0.671c-0.014,0-0.02,0.007-0.02,0.021v2.069c0,0.019-0.006,0.033-0.017,0.044s-0.025,0.016-0.044,0.016h-0.631
			c-0.019,0-0.033-0.005-0.044-0.016s-0.017-0.025-0.017-0.044v-2.069c0-0.014-0.006-0.021-0.02-0.021h-0.651
			c-0.019,0-0.033-0.005-0.044-0.016s-0.016-0.025-0.016-0.044v-0.527c0-0.019,0.005-0.033,0.016-0.044s0.025-0.017,0.044-0.017
			h2.113C51.141,22.514,51.156,22.52,51.166,22.531z"/>
		<path d="M53.506,25.219c-0.166-0.083-0.295-0.2-0.386-0.352c-0.09-0.152-0.136-0.328-0.136-0.527v-1.766
			c0-0.019,0.006-0.033,0.017-0.044c0.01-0.011,0.024-0.017,0.044-0.017h0.631c0.019,0,0.033,0.006,0.044,0.017
			s0.016,0.025,0.016,0.044v1.766c0,0.109,0.031,0.196,0.094,0.262s0.146,0.098,0.25,0.098c0.102,0,0.184-0.033,0.246-0.1
			s0.094-0.153,0.094-0.26v-1.766c0-0.019,0.005-0.033,0.016-0.044s0.025-0.017,0.044-0.017h0.631c0.019,0,0.034,0.006,0.044,0.017
			c0.011,0.011,0.017,0.025,0.017,0.044v1.766c0,0.199-0.046,0.375-0.136,0.527c-0.091,0.151-0.219,0.269-0.384,0.352
			c-0.165,0.082-0.355,0.124-0.571,0.124S53.672,25.301,53.506,25.219z"/>
		<path d="M58.637,22.531c0.011-0.011,0.025-0.017,0.044-0.017h0.632c0.019,0,0.033,0.006,0.044,0.017s0.016,0.025,0.016,0.044
			v2.677c0,0.019-0.005,0.033-0.016,0.044s-0.025,0.016-0.044,0.016h-0.604c-0.032,0-0.056-0.014-0.072-0.04l-0.814-1.358
			c-0.006-0.008-0.011-0.011-0.016-0.01c-0.006,0.001-0.009,0.008-0.009,0.018l0.009,1.331c0,0.019-0.006,0.033-0.017,0.044
			s-0.025,0.016-0.044,0.016h-0.631c-0.019,0-0.033-0.005-0.044-0.016s-0.016-0.025-0.016-0.044v-2.677
			c0-0.019,0.005-0.033,0.016-0.044s0.025-0.017,0.044-0.017h0.604c0.031,0,0.056,0.014,0.071,0.04l0.812,1.358
			c0.005,0.008,0.011,0.012,0.016,0.01c0.005-0.001,0.008-0.007,0.008-0.018l-0.004-1.33C58.621,22.556,58.627,22.542,58.637,22.531
			z"/>
		<path d="M61.763,25.212c-0.167-0.088-0.296-0.212-0.388-0.372c-0.092-0.159-0.138-0.344-0.138-0.551v-0.755
			c0-0.208,0.046-0.392,0.138-0.55s0.221-0.281,0.388-0.369c0.166-0.088,0.358-0.132,0.577-0.132c0.213,0,0.403,0.042,0.571,0.126
			s0.297,0.197,0.39,0.341c0.092,0.145,0.138,0.302,0.138,0.472v0.004c0,0.019-0.006,0.033-0.017,0.044s-0.025,0.017-0.044,0.017
			h-0.627c-0.04,0-0.06-0.013-0.06-0.036c0-0.088-0.031-0.164-0.094-0.228c-0.062-0.064-0.148-0.097-0.258-0.097
			c-0.106,0-0.192,0.036-0.256,0.106s-0.096,0.164-0.096,0.281v0.799c0,0.115,0.036,0.208,0.109,0.28
			c0.073,0.071,0.165,0.107,0.273,0.107c0.099,0,0.18-0.027,0.242-0.082s0.094-0.13,0.094-0.226v-0.052
			c0-0.014-0.007-0.021-0.02-0.021h-0.352c-0.019,0-0.033-0.005-0.044-0.016s-0.017-0.025-0.017-0.044v-0.479
			c0-0.019,0.006-0.033,0.017-0.044s0.025-0.016,0.044-0.016h1.042c0.019,0,0.033,0.005,0.044,0.016s0.017,0.025,0.017,0.044v0.548
			c0,0.197-0.046,0.373-0.138,0.527c-0.093,0.154-0.222,0.274-0.388,0.359c-0.167,0.085-0.357,0.128-0.573,0.128
			C62.121,25.343,61.929,25.3,61.763,25.212z"/>
	</g>
	<linearGradient id="SVGID_1_" gradientUnits="userSpaceOnUse" x1="7.4178" y1="3.7449" x2="14.7301" y2="11.0572">
		<stop  offset="0" style="stop-color:#199BD8"/>
		<stop  offset="1" style="stop-color:#60C4DD"/>
	</linearGradient>
	<path class="st2" d="M14.453,3.528l-3.289,5.233c-0.048,0.097-0.096,0.097-0.144,0L7.682,3.528
		C7.675,3.518,7.665,3.514,7.658,3.504v6.674c0-0.063,0.016-0.096,0.048-0.096c0.032,0,0.064,0.023,0.096,0.071l2.089,3.338
		c0.063,0.128,0.176,0.192,0.336,0.192h1.705c0.16,0,0.272-0.064,0.336-0.192l2.064-3.313c0.032-0.048,0.064-0.072,0.096-0.072
		c0.032,0,0.048,0.032,0.048,0.097V3.502C14.47,3.513,14.458,3.517,14.453,3.528z"/>
	<g>
		<linearGradient id="SVGID_2_" gradientUnits="userSpaceOnUse" x1="0.5555" y1="6.6207" x2="10.7838" y2="16.8489">
			<stop  offset="0" style="stop-color:#199BD8"/>
			<stop  offset="1" style="stop-color:#60C4DD"/>
		</linearGradient>
		<path class="st3" d="M7.682,3.528C7.602,3.4,7.49,3.336,7.346,3.336H3.96c-0.08,0-0.148,0.028-0.204,0.084
			C3.7,3.476,3.672,3.544,3.672,3.624v16.23c0,0.08,0.028,0.148,0.084,0.204c0.056,0.057,0.124,0.084,0.204,0.084h3.41
			c0.08,0,0.147-0.027,0.204-0.084c0.056-0.056,0.084-0.124,0.084-0.204v-9.676c0,0,0,0,0,0V3.504
			C7.665,3.514,7.675,3.518,7.682,3.528z"/>
		<linearGradient id="SVGID_3_" gradientUnits="userSpaceOnUse" x1="11.3418" y1="6.6115" x2="21.5836" y2="16.8533">
			<stop  offset="0" style="stop-color:#199BD8"/>
			<stop  offset="1" style="stop-color:#60C4DD"/>
		</linearGradient>
		<path class="st4" d="M18.378,3.42c-0.057-0.056-0.125-0.084-0.204-0.084h-3.385c-0.161,0-0.272,0.064-0.336,0.192
			c0.006-0.012,0.017-0.016,0.024-0.026v6.701v9.651c0,0.08,0.028,0.148,0.084,0.204c0.056,0.057,0.124,0.084,0.204,0.084h3.41
			c0.08,0,0.147-0.027,0.204-0.084c0.056-0.056,0.084-0.124,0.084-0.204V3.624C18.462,3.544,18.434,3.476,18.378,3.42z"/>
	</g>
	<linearGradient id="SVGID_4_" gradientUnits="userSpaceOnUse" x1="17.7357" y1="6.5831" x2="28.048" y2="16.8953">
		<stop  offset="3.501413e-07" style="stop-color:#E40F7E"/>
		<stop  offset="1" style="stop-color:#DB9CC5"/>
	</linearGradient>
	<path class="st5" d="M24.801,16.613v-3.169V9.818V6.865V3.336h-3.698c-0.08,0-0.148,0.028-0.204,0.084
		c-0.056,0.057-0.084,0.124-0.084,0.204v16.23c0,0.08,0.028,0.148,0.084,0.204c0.056,0.057,0.124,0.084,0.204,0.084h3.698V16.613z"
		/>
	<linearGradient id="SVGID_5_" gradientUnits="userSpaceOnUse" x1="25.1307" y1="9.4883" x2="29.4166" y2="13.7742">
		<stop  offset="3.501413e-07" style="stop-color:#E40F7E"/>
		<stop  offset="1" style="stop-color:#DB9CC5"/>
	</linearGradient>
	<path class="st6" d="M24.921,13.324h4.826c0.08,0,0.148-0.028,0.204-0.084c0.056-0.057,0.084-0.124,0.084-0.204v-2.81
		c0-0.08-0.028-0.147-0.084-0.204c-0.056-0.056-0.124-0.084-0.204-0.084h-4.826c-0.081,0-0.12-0.04-0.12-0.12v3.626
		C24.801,13.364,24.84,13.324,24.921,13.324z"/>
	<linearGradient id="SVGID_6_" gradientUnits="userSpaceOnUse" x1="25.8632" y1="2.2735" x2="31.4572" y2="7.8675">
		<stop  offset="3.501413e-07" style="stop-color:#E40F7E"/>
		<stop  offset="1" style="stop-color:#DB9CC5"/>
	</linearGradient>
	<path class="st7" d="M32.664,3.42c-0.056-0.056-0.124-0.084-0.204-0.084h-7.659v3.529c0-0.08,0.04-0.12,0.12-0.12h7.539
		c0.08,0,0.148-0.027,0.204-0.084c0.056-0.056,0.084-0.124,0.084-0.204V3.624C32.748,3.544,32.72,3.476,32.664,3.42z"/>
	<linearGradient id="SVGID_7_" gradientUnits="userSpaceOnUse" x1="25.8331" y1="15.5809" x2="31.4872" y2="21.2349">
		<stop  offset="3.501413e-07" style="stop-color:#E40F7E"/>
		<stop  offset="1" style="stop-color:#DB9CC5"/>
	</linearGradient>
	<path class="st8" d="M32.459,16.733h-7.539c-0.081,0-0.12-0.04-0.12-0.12v3.529h7.659c0.08,0,0.148-0.027,0.204-0.084
		c0.056-0.056,0.084-0.124,0.084-0.204v-2.833c0-0.08-0.028-0.147-0.084-0.204C32.607,16.762,32.54,16.733,32.459,16.733z"/>
	<linearGradient id="SVGID_8_" gradientUnits="userSpaceOnUse" x1="41.7452" y1="10.0405" x2="46.4751" y2="14.7704">
		<stop  offset="4.699265e-07" style="stop-color:#F69F1A"/>
		<stop  offset="1" style="stop-color:#FCDF27"/>
	</linearGradient>
	<path class="st9" d="M47.273,11.043c0-0.08-0.028-0.147-0.084-0.204c-0.056-0.056-0.124-0.084-0.204-0.084h-5.834
		c-0.08,0-0.148,0.028-0.204,0.084c-0.056,0.057-0.084,0.124-0.084,0.204v2.642c0,0.08,0.028,0.147,0.084,0.203
		c0.056,0.057,0.124,0.085,0.204,0.085h2.088h4.034V11.043z"/>
	<linearGradient id="SVGID_9_" gradientUnits="userSpaceOnUse" x1="42.0636" y1="15.1482" x2="45.5559" y2="18.6405">
		<stop  offset="4.699265e-07" style="stop-color:#F69F1A"/>
		<stop  offset="1" style="stop-color:#FCDF27"/>
	</linearGradient>
	<path class="st10" d="M42.711,16.337c-0.432,0.377-1,0.564-1.705,0.564c-0.05,0-0.094-0.01-0.143-0.012v3.444
		c1.269-0.003,2.386-0.25,3.348-0.743c0.968-0.496,1.72-1.201,2.257-2.113c0.536-0.912,0.804-1.969,0.804-3.169v-0.336h-4.034
		c0.08,0,0.12,0.04,0.12,0.119v0.673C43.359,15.436,43.144,15.961,42.711,16.337z"/>
	<linearGradient id="SVGID_10_" gradientUnits="userSpaceOnUse" x1="40.7739" y1="3.2348" x2="46.8713" y2="9.3323">
		<stop  offset="4.699265e-07" style="stop-color:#F69F1A"/>
		<stop  offset="1" style="stop-color:#FCDF27"/>
	</linearGradient>
	<path class="st11" d="M44.2,3.876c-0.97-0.484-2.082-0.728-3.336-0.731v3.411c0.74,0.005,1.328,0.223,1.763,0.658
		c0.44,0.44,0.66,0.972,0.66,1.597c0,0.08,0.028,0.147,0.084,0.204c0.056,0.056,0.124,0.084,0.204,0.084h3.409
		c0.08,0,0.148-0.028,0.204-0.084c0.056-0.057,0.084-0.124,0.084-0.204V8.69c0-1.024-0.268-1.961-0.804-2.81
		C45.932,5.033,45.176,4.365,44.2,3.876z"/>
	<linearGradient id="SVGID_11_" gradientUnits="userSpaceOnUse" x1="34.3155" y1="6.6905" x2="44.4113" y2="16.7863">
		<stop  offset="4.699265e-07" style="stop-color:#F69F1A"/>
		<stop  offset="1" style="stop-color:#FCDF27"/>
	</linearGradient>
	<path class="st12" d="M40.864,16.889c-0.687-0.03-1.267-0.26-1.73-0.709c-0.496-0.479-0.744-1.104-0.744-1.872V9.146
		c0-0.769,0.224-1.393,0.672-1.873c0.448-0.48,1.04-0.72,1.776-0.72c0.009,0,0.017,0.002,0.026,0.002V3.145
		c-0.009,0-0.017-0.001-0.026-0.001c-1.281,0-2.405,0.257-3.373,0.769c-0.969,0.513-1.721,1.229-2.257,2.149
		c-0.537,0.92-0.805,1.988-0.805,3.205v4.922c0,1.217,0.268,2.289,0.805,3.217c0.536,0.929,1.288,1.649,2.257,2.161
		c0.968,0.513,2.092,0.769,3.373,0.769c0.009,0,0.017-0.001,0.026-0.001V16.889z"/>
	<linearGradient id="SVGID_12_" gradientUnits="userSpaceOnUse" x1="53.99" y1="14.5783" x2="58.0237" y2="18.612">
		<stop  offset="4.699265e-07" style="stop-color:#7EBA28"/>
		<stop  offset="1" style="stop-color:#D0D94A"/>
	</linearGradient>
	<path class="st13" d="M57.788,14.597h-3.576c-0.08,0-0.112-0.048-0.096-0.145l-0.961,3.313c0.032-0.063,0.072-0.096,0.12-0.096
		h5.474c0.049,0,0.088,0.032,0.121,0.096l-0.984-3.313C57.917,14.549,57.886,14.597,57.788,14.597z"/>
	<linearGradient id="SVGID_13_" gradientUnits="userSpaceOnUse" x1="52.624" y1="5.3237" x2="65.5453" y2="18.245">
		<stop  offset="4.699265e-07" style="stop-color:#7EBA28"/>
		<stop  offset="1" style="stop-color:#D0D94A"/>
	</linearGradient>
	<path class="st14" d="M58.87,17.766l0.623,2.137c0.049,0.16,0.16,0.24,0.336,0.24h3.674c0.176,0,0.264-0.072,0.264-0.216
		c0-0.048-0.008-0.088-0.023-0.12l-5.162-16.23c-0.047-0.16-0.152-0.24-0.312-0.24h-3.657l1.448,4.946l1.826,6.17L58.87,17.766z"/>
	<linearGradient id="SVGID_14_" gradientUnits="userSpaceOnUse" x1="48.3435" y1="8.5826" x2="56.1297" y2="16.3689">
		<stop  offset="4.699265e-07" style="stop-color:#7EBA28"/>
		<stop  offset="1" style="stop-color:#D0D94A"/>
	</linearGradient>
	<path class="st15" d="M56.06,8.282l-1.448-4.946h-0.88c-0.16,0-0.264,0.08-0.312,0.24l-5.138,16.23
		c-0.032,0.112-0.024,0.196,0.024,0.252c0.048,0.057,0.12,0.084,0.216,0.084h3.673c0.176,0,0.288-0.08,0.336-0.24l0.624-2.137
		l0.961-3.313l1.801-6.17c0.016-0.048,0.039-0.076,0.072-0.084C56.021,8.19,56.044,8.218,56.06,8.282z"/>
</g>
</svg>
