<svg xmlns="http://www.w3.org/2000/svg" width="230" height="104" fill="none"><path d="M171.92 46.336h.1l.104.016.204.01c3.918.198 6.988 3.413 6.988 7.319v7.344h-7.396c-3.924 0-7.153-3.048-7.352-6.94l-.012-.229-.015-.088v-.087c0-4.05 3.31-7.345 7.379-7.345Zm0-4.003c-6.299 0-11.406 5.073-11.406 11.348 0 .208 0 .416.032.608.306 5.986 5.285 10.74 11.374 10.74h11.422V53.68c0-6.067-4.784-11.012-10.81-11.316-.209-.032-.402-.032-.612-.032ZM214.934 46.336c4.069 0 7.379 3.295 7.379 7.345v.087l-.015.088-.012.23c-.199 3.891-3.428 6.94-7.352 6.94h-7.395V53.68c0-3.906 3.069-7.12 6.987-7.318l.204-.01.105-.017h.099Zm0-4.003c-.209 0-.403 0-.612.032-6.025.304-10.81 5.25-10.81 11.316v11.348h11.422c6.09 0 11.068-4.754 11.374-10.74.032-.192.032-.4.032-.608 0-6.275-5.107-11.348-11.406-11.348ZM208.71 78.17c2.524 0 4.601 1.962 4.729 4.468l.01.207.009.05v.007c0 2.588-2.096 4.697-4.771 4.73l-.058-.008-.184-.01a4.722 4.722 0 0 1-4.494-4.713V78.17h4.759Zm0-3.613h-8.215a.182.182 0 0 0-.178.176v8.168c0 4.461 3.516 8.098 7.944 8.322.154.023.296.023.449.023 4.629 0 8.382-3.73 8.382-8.344 0-.153 0-.306-.024-.448-.225-4.402-3.883-7.897-8.358-7.897ZM182.881 78.17V82.9a4.722 4.722 0 0 1-4.494 4.713l-.184.01-.08.012c.006-.002.007-.003-.001-.003-2.618 0-4.747-2.123-4.747-4.731v-.007l.008-.05.011-.207c.128-2.506 2.205-4.468 4.728-4.468h4.759Zm3.457-3.613h-8.216c-4.475 0-8.133 3.495-8.358 7.897-.024.142-.024.295-.024.448 0 4.613 3.753 8.344 8.382 8.344.154 0 .296 0 .45-.023 4.427-.224 7.943-3.86 7.943-8.322v-8.168a.18.18 0 0 0-.177-.176ZM193.5 82.188c1.801 3.052 3.451 5.965 3.853 9.17.358 2.851-.08 5.144-1.231 6.455-.926 1.055-2.076 1.225-2.721 1.232-.667 0-1.63-.19-2.431-1.09-1.167-1.314-1.606-3.658-1.237-6.599.407-3.242 2.011-6.14 3.767-9.168Zm-.014-7.631c-2.374 5.366-6.572 10.076-7.359 16.352-1.001 7.973 3 11.749 7.274 11.749h.085c4.122-.048 8.499-3.564 7.474-11.748-.788-6.276-5.231-11.18-7.474-16.353Z" fill="#F39100"/><path d="M204.091 68.642h-21.317c-.912 0-1.652-.81-1.652-1.807 0-.998.74-1.807 1.652-1.807h21.317c.912 0 1.652.81 1.652 1.807 0 .998-.74 1.807-1.652 1.807ZM200.475 75.001H186.39a1.812 1.812 0 0 1-1.817-1.807c0-.997.814-1.806 1.817-1.806h14.085c1.004 0 1.817.809 1.817 1.806 0 .998-.813 1.807-1.817 1.807ZM193.525 18.195h-.146c-7.105.09-14.628 5.944-12.865 19.584 1.345 10.46 8.995 18.627 12.865 27.244 4.089-8.942 11.303-16.783 12.666-27.244 1.726-13.279-5.161-19.584-12.52-19.584Zm-7.559 8.078c1.671-2.318 4.361-3.68 7.377-3.717h.109c2.853 0 5.397 1.27 6.996 3.46 1.835 2.52 2.49 6.255 1.89 10.8-.727 5.63-3.671 10.468-6.778 15.601-.745 1.233-1.508 2.484-2.235 3.754-.763-1.288-1.545-2.558-2.326-3.827-3.035-4.913-6.16-9.99-6.887-15.529-.581-4.489.036-8.04 1.854-10.542Z" fill="#F39100"/><path d="M5.04 32.847v-2.891l12.847-18.139H6.057V6.723h20.716v2.763L13.689 27.68h12.884v5.167H5.04ZM36.767 33.208a8.16 8.16 0 0 1-2.472-.398 7.975 7.975 0 0 1-2.307-1.165 6.063 6.063 0 0 1-1.698-1.88c-.43-.74-.646-1.591-.646-2.556V14.166h6.196v12.212c0 .7.242 1.28.727 1.744.484.464 1.182.696 2.09.696.873 0 1.563-.226 2.071-.678.51-.451.763-1.05.763-1.798V14.166h6.143v18.68h-4.616l-.726-3.775c-.231 1.168-.655 2.05-1.273 2.646-.617.596-1.311.994-2.08 1.193a8.711 8.711 0 0 1-2.172.298ZM70.474 32.846h-6.069l-4.725-7.46-1.926 2.113v5.347h-6.178V6h6.178v15.176l6.034-7.01h6.541l-6.832 7.587 6.977 11.093ZM79.652 33.208a8.16 8.16 0 0 1-2.472-.398 7.973 7.973 0 0 1-2.308-1.165 6.063 6.063 0 0 1-1.698-1.88c-.43-.74-.646-1.591-.646-2.556V14.166h6.197v12.212c0 .7.242 1.28.726 1.744.485.464 1.182.696 2.09.696.873 0 1.563-.226 2.072-.678.509-.451.763-1.05.763-1.798V14.166h6.142v18.68h-4.615l-.727-3.775c-.23 1.168-.655 2.05-1.272 2.646-.618.596-1.312.994-2.081 1.193a8.71 8.71 0 0 1-2.171.298ZM94.46 32.846v-18.68h6.107v2.62c.266-.434.62-.862 1.063-1.283.442-.422 1.005-.77 1.689-1.048.684-.277 1.518-.416 2.499-.416 1.127 0 2.19.217 3.189.651 1 .433 1.814 1.123 2.444 2.069.63.945.945 2.182.945 3.712v12.375h-6.214V21.285c0-.82-.267-1.436-.8-1.851a2.904 2.904 0 0 0-1.836-.624c-.46 0-.914.087-1.362.262a2.715 2.715 0 0 0-1.109.777c-.291.343-.436.774-.436 1.292v11.706h-6.178ZM128.024 14.166v4.21h-3.689v14.47h-6.196v-14.47h-3.253v-4.21h3.253v-2.584c0-1.53.478-2.721 1.435-3.577.957-.854 2.272-1.282 3.943-1.282h4.652l.037 4.028h-2.326c-.631 0-1.066.148-1.308.443-.243.295-.364.804-.364 1.526v1.446h3.816ZM143.232 18.375h-4.125l.018 9.214c0 .374.058.65.173.83.116.181.275.302.482.362.206.06.46.09.763.09h2.726v3.704c-.255.109-.649.22-1.181.335-.533.114-1.315.17-2.344.17-1.806 0-3.202-.225-4.189-.677-.988-.451-1.672-1.071-2.053-1.86-.382-.789-.573-1.683-.573-2.683v-9.485h-3.053v-4.21h3.271l1.581-5.726h4.379v5.69h4.125v4.246ZM154.37 33.208c-1.307 0-2.586-.217-3.833-.65a7.776 7.776 0 0 1-3.199-2.078c-.884-.951-1.453-2.192-1.708-3.722h5.306c.158.639.443 1.127.854 1.464.412.337.855.566 1.327.686.473.12.878.18 1.217.18.896 0 1.624-.125 2.181-.379.557-.253.836-.637.836-1.156 0-.433-.173-.774-.518-1.02-.346-.247-.943-.444-1.79-.587l-3.053-.56c-1.721-.326-3.11-.925-4.17-1.798-1.061-.874-1.597-2.111-1.608-3.713-.013-1.144.296-2.174.926-3.09.63-.914 1.557-1.64 2.781-2.177 1.223-.535 2.726-.803 4.506-.803 2.435 0 4.373.53 5.815 1.59 1.442 1.06 2.168 2.523 2.181 4.39h-5.089a2.134 2.134 0 0 0-1.026-1.455c-.551-.33-1.209-.496-1.972-.496-.775 0-1.426.13-1.953.388-.527.259-.79.648-.79 1.165 0 .398.229.717.69.958.46.24 1.193.458 2.199.65l2.744.56c1.126.277 2.041.648 2.743 1.112.703.463 1.245.966 1.627 1.508.381.542.645 1.08.79 1.617.146.536.219 1.008.219 1.418 0 1.289-.358 2.379-1.073 3.27-.714.892-1.693 1.57-2.934 2.032-1.243.464-2.651.696-4.226.696ZM55.568 37.76l-11.33 37.88h-6.903l-6.587-22.686-6.64 22.686H17.31L5.954 37.76h8.72l6.51 22.66 6.375-22.66h6.377l6.534 22.66 6.377-22.66h8.72ZM59.283 75.64V37.76h27.166l-.053 7.44H68.32v7.728h15.413v7.283H68.269v7.91l18.339.027v7.492H59.283ZM122.942 75.64h-9.223l-5.875-13.831h-6.535V75.64h-8.985V37.76h16.679c3.179 0 5.752.512 7.72 1.533 1.967 1.022 3.408 2.419 4.322 4.191.913 1.773 1.369 3.785 1.369 6.038 0 1.974-.281 3.646-.842 5.017-.563 1.371-1.322 2.524-2.28 3.458a14.41 14.41 0 0 1-3.228 2.37l6.878 15.273Zm-15.177-20.564c1.685 0 3.043-.532 4.07-1.598 1.028-1.065 1.542-2.332 1.542-3.799 0-1.536-.527-2.793-1.581-3.772-1.054-.977-2.31-1.467-3.768-1.467h-6.719v10.636h6.456ZM161.911 75.64h-9.723l-9.274-16.818-5.191 6.418v10.4h-9.327V37.76h9.327v16.32l12.463-16.32h10.144l-10.988 14.566 12.569 23.314Z" fill="#000"/></svg>